PathFileType	4	(X/Y/Z)
DataRate	CameraRate	NumFrames	NumMarkers	Units	OrigDataRate	OrigDataStartFrame	OrigNumFrames	
  100.0	  100.0	    5	     56	     mm	  100.0	      159	    253
Frame#	Time	LASI			RASI			LPSI			RPSI			RTH1			RTH2			RTH3			RLFC			RMFC			LTH1			LTH2			LTH3			LLFC			LMFC			RTB1			RTB2			RTB3			RLMAL			RMMAL			LTB1			LTB2			LTB3			LMMAL			LLMAL			RCAL			RTOE			RMT5			LCAL			LTOE			LMT5			LACR			RACR			CLAV			C7			LASH			LPSH			RASH			RPSH			RUA1			RUA2			RUA3			RLEL			RMEL			LUA1			LUA2			LUA3			LLEL			LMEL			RFAsuperior			RFAradius			RFAulna			LFAsuperior			LFAradius			LFAulna			RHJC			LHJC			
		X1	Y1	Z1	X2	Y2	Z2	X3	Y3	Z3	X4	Y4	Z4	X5	Y5	Z5	X6	Y6	Z6	X7	Y7	Z7	X8	Y8	Z8	X9	Y9	Z9	X10	Y10	Z10	X11	Y11	Z11	X12	Y12	Z12	X13	Y13	Z13	X14	Y14	Z14	X15	Y15	Z15	X16	Y16	Z16	X17	Y17	Z17	X18	Y18	Z18	X19	Y19	Z19	X20	Y20	Z20	X21	Y21	Z21	X22	Y22	Z22	X23	Y23	Z23	X24	Y24	Z24	X25	Y25	Z25	X26	Y26	Z26	X27	Y27	Z27	X28	Y28	Z28	X29	Y29	Z29	X30	Y30	Z30	X31	Y31	Z31	X32	Y32	Z32	X33	Y33	Z33	X34	Y34	Z34	X35	Y35	Z35	X36	Y36	Z36	X37	Y37	Z37	X38	Y38	Z38	X39	Y39	Z39	X40	Y40	Z40	X41	Y41	Z41	X42	Y42	Z42	X43	Y43	Z43	X44	Y44	Z44	X45	Y45	Z45	X46	Y46	Z46	X47	Y47	Z47	X48	Y48	Z48	X49	Y49	Z49	X50	Y50	Z50	X51	Y51	Z51	X52	Y52	Z52	X53	Y53	Z53	X54	Y54	Z54	X55	Y55	Z55	X56	Y56	Z56	

176	1.76000	506.57300	1050.13041	-632.87338	525.35363	1043.69643	-361.90690	339.30298	1065.80702	-538.84746	345.23038	1062.72106	-440.51413	422.43816	861.44574	-305.08380	503.79516	759.70882	-306.20678	426.72140	639.38214	-320.40447	465.63379	520.02586	-314.21888	455.24597	509.03633	-438.93204	428.65816	862.81269	-679.66726	501.42248	737.25344	-682.46810	445.72864	617.96793	-673.34209	465.01767	526.43365	-676.73814	455.97112	517.09117	-550.74201	482.91048	389.26246	-363.99375	453.74460	341.75112	-293.15415	459.21154	225.60774	-346.47742	406.88174	113.03981	-289.28165	433.86896	120.30784	-380.92006	480.73088	378.28331	-626.75697	423.46875	306.67867	-695.99015	459.37489	224.33923	-633.70887	435.94249	122.08889	-590.78749	409.79837	118.70690	-681.04001	339.33680	100.31707	-340.65220	563.50416	70.53113	-348.05350	513.34753	60.05152	-257.85262	338.67308	96.82716	-624.57494	568.80093	68.04513	-638.42025	507.43841	53.63322	-723.70268	580.78850	1516.98833	-645.37635	602.57531	1498.45009	-348.47314	627.75126	1412.84236	-471.89135	548.38215	1528.49687	-493.35909	613.07837	1445.37116	-659.72721	496.21597	1494.87952	-669.56514	615.62632	1422.65858	-343.22952	503.57503	1495.01521	-318.51920	551.82477	1487.50025	-247.79540	491.18632	1422.85289	-224.27180	524.49202	1427.70982	-150.14656	506.32285	1387.60271	-46.80947	483.84783	1317.02500	-85.44385	522.06450	1488.63571	-740.67769	482.49381	1404.19099	-764.17891	488.70939	1406.66687	-851.24894	501.38641	1374.66915	-937.22240	488.61351	1309.20233	-895.65897	615.05091	1373.79619	-43.61958	761.90298	1338.35406	-69.09201	741.39273	1272.03689	-57.70782	612.74990	1361.93265	-954.54249	764.21991	1324.37309	-942.96392	751.16288	1254.60568	-943.84696	448.02443	955.46841	-400.22726	440.61930	966.70562	-574.89184	
177	1.77000	506.56034	1050.12207	-632.87329	525.37443	1043.70216	-361.88216	341.12164	1065.29502	-539.54595	345.25274	1062.69574	-440.53256	422.44397	861.43656	-305.07648	503.80865	759.69983	-306.20145	426.71385	639.37419	-320.40098	465.63844	520.01650	-314.22198	455.22884	509.02839	-438.93768	430.30587	862.94439	-681.38144	501.94995	737.19258	-682.35687	447.48519	618.36771	-675.27099	465.51055	526.44822	-676.63800	455.94412	517.06918	-550.73370	483.45224	389.32144	-363.91124	453.77463	341.70537	-293.14206	459.67215	225.68383	-346.40934	406.89007	113.02736	-289.26697	434.23205	120.31527	-380.93068	481.02821	378.26329	-626.73141	424.19573	306.80313	-696.74189	460.55422	224.85793	-635.28473	435.96929	122.04370	-590.83928	412.03071	118.33942	-681.36615	339.34028	100.33817	-340.61314	564.84475	71.15803	-347.38950	514.35505	59.63861	-258.03120	340.02919	96.42348	-624.85840	570.29851	68.71153	-637.56271	508.90245	54.09366	-722.88955	581.23202	1516.87207	-645.24958	602.56622	1498.45558	-348.44173	628.36249	1412.66411	-471.57913	549.00152	1528.32138	-493.05407	613.60042	1445.18695	-659.53012	496.95577	1494.58586	-669.74311	615.64273	1422.64864	-343.19184	503.67797	1494.88108	-318.65464	552.22419	1487.35438	-247.68978	491.19090	1422.81809	-224.26542	524.48531	1427.69311	-150.11620	506.52219	1387.54528	-46.75473	483.81798	1317.01487	-85.40672	522.68112	1488.35554	-741.07086	484.07321	1403.90607	-764.85719	488.76751	1406.66137	-851.24728	502.50680	1374.39799	-938.07575	488.55654	1309.21506	-895.63835	615.06344	1373.76274	-43.57615	761.91583	1338.36967	-69.05892	741.38765	1272.04953	-57.67921	613.18455	1361.82261	-954.45010	764.65290	1324.26273	-942.84552	751.56722	1254.52736	-943.71760	448.25390	955.39031	-400.34523	441.16712	966.58815	-575.01575	
178	1.78000	506.54553	1050.11708	-632.87084	525.32285	1043.70600	-361.89296	342.67956	1064.84463	-540.15091	345.28305	1062.71861	-440.55814	422.45610	861.43929	-305.07549	503.82398	759.70168	-306.21400	426.71229	639.37399	-320.40318	465.65767	520.01445	-314.23312	455.22845	509.02665	-438.93964	431.73175	863.05736	-682.87026	502.43617	737.14256	-682.25238	449.00293	618.71296	-676.97322	466.05038	526.43782	-676.61316	455.93083	517.05762	-550.72293	483.71083	389.33088	-363.87445	453.89149	341.60596	-293.09822	459.97071	225.68124	-346.41470	406.90976	113.02639	-289.25025	433.88520	120.13508	-381.09191	481.03057	378.21324	-626.81622	423.96040	306.75416	-696.85148	460.55340	224.97787	-635.90039	435.99082	122.04529	-590.89450	414.52725	117.74193	-681.47404	339.35808	100.35570	-340.61581	566.10613	71.40323	-347.10389	515.18960	59.28573	-258.21844	341.13734	96.01457	-625.13676	571.77085	69.27646	-636.85158	510.22040	54.42956	-722.29865	581.63805	1516.70923	-645.18831	602.54726	1498.47468	-348.42359	628.88616	1412.49276	-471.32379	549.53329	1528.15284	-492.80592	614.13029	1444.97179	-659.35181	497.43228	1494.41200	-669.88068	615.62985	1422.65492	-343.18023	503.83701	1494.84571	-318.72141	552.56337	1487.24020	-247.60556	491.19708	1422.82596	-224.29620	524.47244	1427.68876	-150.11030	506.80217	1387.45423	-46.71286	483.79643	1317.00819	-85.36500	523.18204	1488.13143	-741.41862	485.48278	1403.68033	-765.48735	488.69561	1406.68650	-851.21526	503.47082	1374.17134	-938.82554	488.50796	1309.23827	-895.61908	615.06779	1373.75643	-43.55477	761.87991	1338.38796	-69.05233	741.39057	1272.04938	-57.66707	613.64861	1361.68618	-954.38427	765.00070	1324.16437	-942.76452	751.85155	1254.48293	-943.62763	448.42002	955.32652	-400.46166	441.60230	966.49773	-575.13703	
179	1.79000	506.52735	1050.12135	-632.86109	525.21248	1043.70158	-361.93154	343.57319	1064.57117	-540.50513	345.28349	1062.77538	-440.57405	422.46940	861.44993	-305.07848	503.83488	759.71130	-306.23639	426.71817	639.38015	-320.41145	465.67320	520.01569	-314.24686	455.24151	509.02862	-438.93656	432.55252	863.12246	-683.74154	502.70661	737.11374	-682.19138	449.87982	618.91481	-677.99134	466.36933	526.40825	-676.60839	455.92252	517.05447	-550.71648	483.75779	389.31327	-363.87045	453.99667	341.52651	-293.06174	460.09451	225.65395	-346.44943	406.93698	113.03943	-289.24549	433.34864	119.93325	-381.25848	480.89543	378.17713	-626.93253	423.41673	306.65185	-696.64771	459.61429	224.65534	-635.30851	436.00896	122.06055	-590.95347	416.28688	117.23982	-681.42855	339.38418	100.35946	-340.66284	566.83192	71.36208	-347.13855	515.67514	59.10911	-258.37020	341.76064	95.74491	-625.34450	572.64769	69.58882	-636.47998	510.91781	54.58266	-722.06049	581.84499	1516.58730	-645.18737	602.52446	1498.49501	-348.41480	629.16502	1412.38551	-471.18907	549.82025	1528.04844	-492.67839	614.45699	1444.82617	-659.24044	497.70594	1494.35689	-670.00009	615.59006	1422.67004	-343.19189	503.97397	1494.86619	-318.74127	552.74290	1487.17840	-247.55563	491.19347	1422.85745	-224.33596	524.44903	1427.68985	-150.11525	506.99131	1387.38706	-46.69285	483.77517	1316.99211	-85.32917	523.45051	1488.01939	-741.63366	486.29827	1403.53903	-765.85714	488.65199	1406.71363	-851.20036	504.02232	1374.05406	-939.26989	488.46529	1309.27103	-895.59878	615.05450	1373.77345	-43.54613	761.81805	1338.40912	-69.05293	741.39231	1272.04097	-57.66561	613.92587	1361.60817	-954.34780	765.17092	1324.12527	-942.73520	751.96154	1254.48636	-943.60836	448.47612	955.28788	-400.54415	441.80703	966.45797	-575.22242	
180	1.80000	506.50320	1050.13176	-632.84582	525.11237	1043.68795	-361.96408	343.57542	1064.54680	-540.51757	345.23151	1062.79610	-440.52548	422.48356	861.44709	-305.06643	503.84568	759.70852	-306.23874	426.73293	639.37662	-320.40465	465.68115	520.00883	-314.24380	455.25547	509.02789	-438.93108	432.55839	863.12257	-683.78886	502.68196	737.10720	-682.19363	449.88148	618.92457	-678.04798	466.33141	526.38134	-676.58215	455.90742	517.05398	-550.71811	483.75708	389.30228	-363.87162	454.01866	341.52272	-293.05558	460.10876	225.65302	-346.44686	406.96173	113.05456	-289.24774	433.29914	119.91575	-381.26197	480.81279	378.18447	-626.97390	423.41947	306.65201	-696.65362	458.75734	224.22166	-634.23990	436.03506	122.03579	-590.98003	416.54115	117.16047	-681.34281	339.39507	100.34123	-340.68640	566.85390	71.34312	-347.15425	515.72740	59.09757	-258.40047	341.78277	95.71864	-625.41205	572.64869	69.58272	-636.48865	510.92601	54.58667	-722.07835	581.79428	1516.57372	-645.20533	602.52413	1498.48633	-348.38626	629.13703	1412.35675	-471.17486	549.80035	1528.02252	-492.67138	614.44517	1444.81770	-659.22416	497.72471	1494.36575	-670.01137	615.57955	1422.65228	-343.17465	503.99100	1494.87455	-318.69339	552.73001	1487.15530	-247.52891	491.18475	1422.83941	-224.32488	524.42611	1427.67009	-150.10105	506.98175	1387.36348	-46.67773	483.74980	1316.96189	-85.30882	523.42975	1488.02071	-741.62842	486.27169	1403.51149	-765.84610	488.67646	1406.71775	-851.18842	504.00076	1374.08224	-939.27357	488.42442	1309.30511	-895.57470	615.04081	1373.77797	-43.52004	761.78176	1338.42001	-69.02401	741.39827	1272.02251	-57.64311	613.88807	1361.63661	-954.34595	765.12822	1324.17100	-942.75795	751.90899	1254.53330	-943.65791	448.43826	955.27269	-400.55397	441.74295	966.46618	-575.23201	
